<svg width="191" height="38" viewBox="0 0 191 38" fill="none" xmlns="http://www.w3.org/2000/svg">
<path d="M9.88 29.48C8.04 29.48 6.33333 29.1333 4.76 28.44C3.18667 27.7467 1.82667 26.8 0.68 25.6L2.68 23.28C3.61333 24.2667 4.70667 25.0667 5.96 25.68C7.24 26.2667 8.56 26.56 9.92 26.56C11.6533 26.56 13 26.1733 13.96 25.4C14.92 24.6 15.4 23.56 15.4 22.28C15.4 21.6133 15.28 21.0533 15.04 20.6C14.8267 20.12 14.52 19.72 14.12 19.4C13.7467 19.0533 13.2933 18.7467 12.76 18.48C12.2267 18.2133 11.6533 17.9333 11.04 17.64L7.28 16C6.66667 15.7333 6.04 15.4133 5.4 15.04C4.76 14.6667 4.18667 14.2133 3.68 13.68C3.17333 13.1467 2.76 12.52 2.44 11.8C2.12 11.0533 1.96 10.2 1.96 9.24C1.96 8.25333 2.16 7.33333 2.56 6.48C2.98667 5.62667 3.56 4.89333 4.28 4.28C5.02667 3.64 5.89333 3.14667 6.88 2.8C7.89333 2.45333 9 2.28 10.2 2.28C11.7733 2.28 13.2267 2.58666 14.56 3.2C15.8933 3.78667 17.0267 4.56 17.96 5.52L16.16 7.68C15.36 6.90667 14.4667 6.30667 13.48 5.88C12.52 5.42667 11.4267 5.2 10.2 5.2C8.73333 5.2 7.54667 5.54667 6.64 6.24C5.76 6.90667 5.32 7.84 5.32 9.04C5.32 9.68 5.44 10.2267 5.68 10.68C5.94667 11.1067 6.29333 11.4933 6.72 11.84C7.14667 12.16 7.61333 12.4533 8.12 12.72C8.62667 12.96 9.14667 13.1867 9.68 13.4L13.4 15C14.1467 15.32 14.8533 15.6933 15.52 16.12C16.1867 16.52 16.76 17 17.24 17.56C17.72 18.0933 18.0933 18.7333 18.36 19.48C18.6533 20.2 18.8 21.04 18.8 22C18.8 23.04 18.5867 24.0133 18.16 24.92C17.76 25.8267 17.1733 26.6267 16.4 27.32C15.6267 27.9867 14.6933 28.52 13.6 28.92C12.5067 29.2933 11.2667 29.48 9.88 29.48ZM23.6472 29V9.56H26.9272V29H23.6472ZM25.3272 5.56C24.6872 5.56 24.1405 5.36 23.6872 4.96C23.2605 4.56 23.0472 4.05333 23.0472 3.44C23.0472 2.8 23.2605 2.29333 23.6872 1.92C24.1405 1.52 24.6872 1.32 25.3272 1.32C25.9672 1.32 26.5005 1.52 26.9272 1.92C27.3805 2.29333 27.6072 2.8 27.6072 3.44C27.6072 4.05333 27.3805 4.56 26.9272 4.96C26.5005 5.36 25.9672 5.56 25.3272 5.56ZM33.4909 29V9.56H36.2109L36.4909 12.36H36.6109C37.4643 11.4267 38.3843 10.6533 39.3709 10.04C40.3843 9.4 41.4776 9.08 42.6509 9.08C44.1443 9.08 45.3043 9.41333 46.1309 10.08C46.9843 10.72 47.6109 11.6267 48.0109 12.8C49.0243 11.68 50.0376 10.7867 51.0509 10.12C52.0909 9.42667 53.2109 9.08 54.4109 9.08C56.4109 9.08 57.8909 9.72 58.8509 11C59.8376 12.28 60.3309 14.1733 60.3309 16.68V29H57.0509V17.12C57.0509 15.28 56.7576 13.96 56.1709 13.16C55.5843 12.3333 54.6776 11.92 53.4509 11.92C51.9843 11.92 50.3576 12.92 48.5709 14.92V29H45.2909V17.12C45.2909 15.28 44.9976 13.96 44.4109 13.16C43.8243 12.3333 42.9043 11.92 41.6509 11.92C40.1843 11.92 38.5576 12.92 36.7709 14.92V29H33.4909ZM66.655 37.2V9.56H69.375L69.655 11.8H69.775C70.655 11.0533 71.615 10.4133 72.655 9.88C73.7217 9.34667 74.8283 9.08 75.975 9.08C77.2283 9.08 78.335 9.32 79.295 9.8C80.255 10.2533 81.055 10.92 81.695 11.8C82.335 12.6533 82.815 13.6933 83.135 14.92C83.4817 16.12 83.655 17.48 83.655 19C83.655 20.6533 83.4283 22.1333 82.975 23.44C82.5217 24.72 81.9083 25.8133 81.135 26.72C80.3617 27.6267 79.4683 28.32 78.455 28.8C77.4417 29.2533 76.375 29.48 75.255 29.48C74.3483 29.48 73.4417 29.28 72.535 28.88C71.655 28.48 70.7617 27.9333 69.855 27.24L69.935 30.64V37.2H66.655ZM74.695 26.72C75.495 26.72 76.2283 26.5467 76.895 26.2C77.5883 25.8267 78.175 25.32 78.655 24.68C79.1617 24.0133 79.5483 23.2 79.815 22.24C80.1083 21.28 80.255 20.2 80.255 19C80.255 17.9333 80.1617 16.96 79.975 16.08C79.7883 15.2 79.4817 14.4533 79.055 13.84C78.655 13.2 78.1217 12.7067 77.455 12.36C76.815 12.0133 76.0417 11.84 75.135 11.84C74.3083 11.84 73.4683 12.0667 72.615 12.52C71.7883 12.9733 70.895 13.6267 69.935 14.48V24.68C70.815 25.4267 71.6683 25.96 72.495 26.28C73.3217 26.5733 74.055 26.72 74.695 26.72ZM92.3225 29.48C91.0692 29.48 90.1758 29.1067 89.6425 28.36C89.1092 27.6133 88.8425 26.52 88.8425 25.08V0.52H92.1225V25.32C92.1225 25.8533 92.2158 26.2267 92.4025 26.44C92.5892 26.6533 92.8025 26.76 93.0425 26.76C93.1492 26.76 93.2425 26.76 93.3225 26.76C93.4292 26.76 93.5758 26.7333 93.7625 26.68L94.2025 29.16C93.9892 29.2667 93.7358 29.3467 93.4425 29.4C93.1492 29.4533 92.7758 29.48 92.3225 29.48ZM106.918 29.48C105.611 29.48 104.384 29.2533 103.238 28.8C102.118 28.32 101.131 27.6533 100.278 26.8C99.4511 25.92 98.7978 24.8533 98.3178 23.6C97.8378 22.3467 97.5978 20.92 97.5978 19.32C97.5978 17.72 97.8378 16.2933 98.3178 15.04C98.8245 13.76 99.4778 12.68 100.278 11.8C101.104 10.92 102.038 10.2533 103.078 9.8C104.118 9.32 105.198 9.08 106.318 9.08C107.544 9.08 108.638 9.29333 109.598 9.72C110.584 10.1467 111.398 10.76 112.038 11.56C112.704 12.36 113.211 13.32 113.558 14.44C113.904 15.56 114.078 16.8133 114.078 18.2C114.078 18.5467 114.064 18.8933 114.038 19.24C114.038 19.56 114.011 19.84 113.958 20.08H100.838C100.971 22.16 101.611 23.8133 102.758 25.04C103.931 26.24 105.451 26.84 107.318 26.84C108.251 26.84 109.104 26.7067 109.878 26.44C110.678 26.1467 111.438 25.7733 112.158 25.32L113.318 27.48C112.464 28.0133 111.518 28.48 110.478 28.88C109.438 29.28 108.251 29.48 106.918 29.48ZM100.798 17.72H111.198C111.198 15.7467 110.771 14.2533 109.918 13.24C109.091 12.2 107.918 11.68 106.398 11.68C105.704 11.68 105.038 11.8133 104.398 12.08C103.784 12.3467 103.224 12.7467 102.718 13.28C102.211 13.7867 101.784 14.4133 101.438 15.16C101.118 15.9067 100.904 16.76 100.798 17.72ZM129.562 29.48C127.908 29.48 126.348 29.2 124.882 28.64C123.415 28.0533 122.122 27.2 121.002 26.08C119.908 24.96 119.042 23.5733 118.402 21.92C117.762 20.24 117.442 18.3067 117.442 16.12C117.442 13.96 117.775 12.04 118.442 10.36C119.108 8.65333 120.002 7.21333 121.122 6.04C122.242 4.86667 123.548 3.97333 125.042 3.36C126.535 2.74667 128.108 2.44 129.762 2.44C131.442 2.44 132.948 2.78667 134.282 3.48C135.615 4.14667 136.722 4.93333 137.602 5.84L134.482 9.6C133.815 8.98667 133.108 8.49333 132.362 8.12C131.642 7.72 130.815 7.52 129.882 7.52C129.002 7.52 128.162 7.72 127.362 8.12C126.588 8.49333 125.908 9.04 125.322 9.76C124.762 10.48 124.308 11.36 123.962 12.4C123.642 13.44 123.482 14.6133 123.482 15.92C123.482 18.6133 124.055 20.7067 125.202 22.2C126.348 23.6667 127.882 24.4 129.802 24.4C130.868 24.4 131.815 24.1733 132.642 23.72C133.495 23.24 134.242 22.6533 134.882 21.96L138.002 25.64C135.815 28.2 133.002 29.48 129.562 29.48ZM141.963 29V2.92H151.363C152.749 2.92 154.043 3.05333 155.243 3.32C156.469 3.58667 157.536 4.04 158.443 4.68C159.349 5.29333 160.069 6.12 160.603 7.16C161.136 8.2 161.403 9.49333 161.403 11.04C161.403 12.96 160.976 14.5467 160.123 15.8C159.296 17.0267 158.176 17.9467 156.763 18.56L162.683 29H156.083L151.083 19.6H147.843V29H141.963ZM147.843 14.92H150.883C152.429 14.92 153.603 14.6 154.403 13.96C155.229 13.2933 155.643 12.32 155.643 11.04C155.643 9.76 155.229 8.86667 154.403 8.36C153.603 7.85333 152.429 7.6 150.883 7.6H147.843V14.92ZM166.494 29V2.92H172.934L177.134 14.52C177.401 15.2933 177.654 16.0933 177.894 16.92C178.134 17.72 178.387 18.52 178.654 19.32H178.814C179.081 18.52 179.321 17.72 179.534 16.92C179.774 16.0933 180.027 15.2933 180.294 14.52L184.414 2.92H190.814V29H185.454V19.44C185.454 18.8 185.481 18.0933 185.534 17.32C185.587 16.5467 185.654 15.7733 185.734 15C185.814 14.2 185.894 13.4267 185.974 12.68C186.054 11.9067 186.134 11.2 186.214 10.56H186.054L183.934 16.76L180.214 26.72H176.974L173.254 16.76L171.174 10.56H171.014C171.094 11.2 171.174 11.9067 171.254 12.68C171.334 13.4267 171.414 14.2 171.494 15C171.574 15.7733 171.641 16.5467 171.694 17.32C171.747 18.0933 171.774 18.8 171.774 19.44V29H166.494Z" fill="white"/>
</svg>
